<?xml version="1.0" standalone="no"?>
<!DOCTYPE svg PUBLIC "-//W3C//DTD SVG 20010904//EN"
 "http://www.w3.org/TR/2001/REC-SVG-20010904/DTD/svg10.dtd">
<svg version="1.0" xmlns="http://www.w3.org/2000/svg"
 width="512.000000pt" height="512.000000pt" viewBox="0 0 512.000000 512.000000"
 preserveAspectRatio="xMidYMid meet">
<metadata>
Created by potrace 1.14, written by Peter Selinger 2001-2017
</metadata>
<g transform="translate(0.000000,512.000000) scale(0.100000,-0.100000)"
fill="#000000" stroke="none">
<path d="M415 5110 c-197 -39 -362 -202 -404 -398 -8 -38 -11 -636 -10 -2160
0 -2255 -2 -2146 48 -2255 64 -139 197 -247 351 -283 44 -11 460 -14 2157 -14
1405 0 2119 3 2150 10 198 43 361 204 402 395 7 34 10 718 10 2160 0 1816 -2
2118 -15 2165 -49 187 -179 317 -373 374 -48 14 -264 16 -2165 15 -1161 -1
-2129 -5 -2151 -9z"/>
</g>
</svg>
